<svg width="20" height="20" viewBox="0 0 20 20" fill="none" xmlns="http://www.w3.org/2000/svg">
<g clip-path="url(#clip0_7_1404)">
<path d="M16.2333 10.2917C14.925 6.89168 10.2667 6.70835 11.3917 1.76668C11.475 1.40002 11.0833 1.11668 10.7667 1.30835C7.74168 3.09168 5.56668 6.66668 7.39168 11.35C7.54168 11.7333 7.09168 12.0917 6.76668 11.8417C5.25834 10.7 5.10001 9.05835 5.23334 7.88335C5.28334 7.45002 4.71668 7.24168 4.47501 7.60001C3.90834 8.46668 3.33334 9.86668 3.33334 11.975C3.65001 16.6417 7.59168 18.075 9.00834 18.2583C11.0333 18.5167 13.225 18.1417 14.8 16.7C16.5333 15.0917 17.1667 12.525 16.2333 10.2917ZM8.50001 14.4833C9.70001 14.1917 10.3167 13.325 10.4833 12.5583C10.7583 11.3667 9.68334 10.2 10.4083 8.31668C10.6833 9.87501 13.1333 10.85 13.1333 12.55C13.2 14.6583 10.9167 16.4667 8.50001 14.4833Z" fill="#F25D29"/>
</g>
<defs>
<clipPath id="clip0_7_1404">
<rect width="20" height="20" fill="white"/>
</clipPath>
</defs>
</svg>
